<svg width="390" height="810" viewBox="0 0 390 810" fill="none" xmlns="http://www.w3.org/2000/svg">
<path d="M388 290C389.105 290 390 290.895 390 292V345C390 346.105 389.105 347 388 347V290Z" fill="#7C7B80"/>
<path d="M388 140C389.105 140 390 140.895 390 142V239C390 240.105 389.105 241 388 241V140Z" fill="#7C7B80"/>
<path fill-rule="evenodd" clip-rule="evenodd" d="M5.23169 26.2085C0 36.4762 0 50.9175 0 77.8V732.2C0 759.083 0 772.524 5.23169 782.792C9.83361 791.823 17.1767 799.166 26.2085 803.768C36.4762 809 49.9175 809 76.8 809H311.2C338.083 809 351.524 809 361.792 803.768C370.823 799.166 378.166 791.823 382.768 782.792C388 772.524 388 759.083 388 732.2V77.8C388 50.9175 388 36.4762 382.768 26.2085C378.166 17.1767 370.823 9.83361 361.792 5.23169C351.524 0 338.083 0 311.2 0H76.8C49.9175 0 36.4762 0 26.2085 5.23169C17.1767 9.83361 9.83361 17.1767 5.23169 26.2085ZM17.9238 34.6563C14 42.3572 14 52.4381 14 72.6V737.4C14 757.562 14 767.643 17.9238 775.344C21.3752 782.117 26.8825 787.625 33.6563 791.076C41.3572 795 51.4381 795 71.6 795H316.4C336.562 795 346.643 795 354.344 791.076C361.117 787.625 366.625 782.117 370.076 775.344C374 767.643 374 757.562 374 737.4V72.6C374 52.4381 374 42.3572 370.076 34.6563C366.625 27.8825 361.117 22.3752 354.344 18.9238C346.643 15 336.562 15 316.4 15H71.6C51.4381 15 41.3572 15 33.6563 18.9238C26.8825 22.3752 21.3752 27.8825 17.9238 34.6563Z" fill="#A5A5A5"/>
<path fill-rule="evenodd" clip-rule="evenodd" d="M10.6867 30.4784C6 39.6766 6 51.7177 6 75.8V734.2C6 758.282 6 770.323 10.6867 779.522C14.8093 787.613 21.3874 794.191 29.4784 798.313C38.6766 803 50.7177 803 74.8 803H313.2C337.282 803 349.323 803 358.522 798.313C366.613 794.191 373.191 787.613 377.313 779.522C382 770.323 382 758.282 382 734.2V75.8C382 51.7177 382 39.6766 377.313 30.4784C373.191 22.3874 366.613 15.8093 358.522 11.6867C349.323 7 337.282 7 313.2 7H74.8C50.7177 7 38.6766 7 29.4784 11.6867C21.3874 15.8093 14.8093 22.3874 10.6867 30.4784ZM17.9238 34.6563C14 42.3572 14 52.4381 14 72.6V737.4C14 757.562 14 767.643 17.9238 775.344C21.3752 782.117 26.8825 787.625 33.6563 791.076C41.3572 795 51.4381 795 71.6 795H316.4C336.562 795 346.643 795 354.344 791.076C361.117 787.625 366.625 782.117 370.076 775.344C374 767.643 374 757.562 374 737.4V72.6C374 52.4381 374 42.3572 370.076 34.6563C366.625 27.8825 361.117 22.3752 354.344 18.9238C346.643 15 336.562 15 316.4 15H71.6C51.4381 15 41.3572 15 33.6563 18.9238C26.8825 22.3752 21.3752 27.8825 17.9238 34.6563Z" fill="#020203"/>
<path d="M195 43C199.971 43 204 38.9706 204 34C204 29.0294 199.971 25 195 25C190.029 25 186 29.0294 186 34C186 38.9706 190.029 43 195 43Z" fill="#020203"/>
<path d="M195 40C198.314 40 201 37.3137 201 34C201 30.6863 198.314 28 195 28C191.686 28 189 30.6863 189 34C189 37.3137 191.686 40 195 40Z" fill="#212121"/>
</svg>
