<svg xmlns="http://www.w3.org/2000/svg" viewBox="0 0 64 64"><g fill="#1e4072"><path d="M26.908 27H29c1.308-.02 1.32-1.978 0-2H9c-1.308.02-1.32 1.978 0 2h15.092c-.17.318-.065 2.128-.092 2.5a1.5 1.5 0 1 0 3 0c-.027-.381.079-2.171-.092-2.5Z"/><path d="M57 32h-2c.33-3.154-1.712-5.968-5-6H36v-5c0-2.757-2.243-5-5-5h-6V9h1.5c3.952-.102 3.959-5.896 0-6h-15c-3.952.102-3.959 5.896 0 6H13v7H7c-2.757 0-5 2.243-5 5v30c0 2.757 2.243 5 5 5-.61 6.65 8.611 6.645 8 0h9c0 2.76 2.24 5 5 5h28c2.76 0 5-2.24 5-5V37c0-2.76-2.24-5-5-5Zm-21-4h14c1.65 0 3 1.35 3 3v1H33v-1c0-1.65 1.35-3 3-3Zm16.5 18v2c-.022 1.314-1.978 1.315-2 0v-2c.022-1.314 1.978-1.315 2 0Zm-17 0v2c-.022 1.314-1.978 1.315-2 0v-2c.022-1.314 1.978-1.315 2 0ZM15 9h8v7h-8V9Zm9 28v17H7c-1.654 0-3-1.346-3-3V21c0-1.654 1.346-3 3-3h24c1.654 0 3 1.346 3 3v5.423c-1.764.772-3 2.53-3 4.577v1h-2c-2.76 0-5 2.24-5 5Zm36 19c0 1.65-1.35 3-3 3H29c-1.65 0-3-1.35-3-3V44.97c1.051.921 2.579 1.05 4 1.045V48c0 1.65 1.35 3 3 3h3c1.65 0 3-1.35 3-3v-2h8v2c0 1.65 1.35 3 3 3h3c1.65 0 3-1.35 3-3v-1.984c1.414.012 2.948-.129 4-1.046V56Z"/></g></svg>